<?xml version="1.0" encoding="UTF-8"?>
<svg id="Calque_2" data-name="Calque 2" xmlns="http://www.w3.org/2000/svg" viewBox="0 0 814.93 552.36">
  <defs>
    <style>
      .cls-1 {
        fill: #fff;
      }
    </style>
  </defs>
  <g id="LOGO_FINAL" data-name="LOGO FINAL">
    <g>
      <path class="cls-1" d="M787.62,433.01c-2.51-10.95-12.25-18.72-23.48-18.72h-86.02l75.04-96.69c4.39-5.69,5.98-13.05,4.37-20.06l-35.62-159.38c-8.72-38.12-32.07-72.64-62.77-97.63C632.14,18.56,599.31,3.31,565.91.1c-8.28-.8-16.24,3.37-21.32,9.95l-98.8,128.12h118.91c11.22,0,20.94,7.73,23.47,18.66l26.69,119.4-107.02,138.06h137.84l27.6,122.19c2.1,9.28,10.35,15.88,19.86,15.88h121.79l-27.31-119.35Z"/>
      <path class="cls-1" d="M142.35,18.81C139.84,7.86,130.1.1,118.86.1H0l27.98,122.24c2.12,9.26,10.35,15.82,19.85,15.82h121.83l-27.31-119.35Z"/>
      <path class="cls-1" d="M383.02,40.54C356.01,18.56,323.49,3.29,290.1.1c-8.28-.8-16.55,3.35-21.63,9.95l-98.78,128.12h0s-99.49,129.01-99.49,129.01c-4.42,5.73-6.03,13.14-4.38,20.18l56.86,246.21c2.48,10.98,12.24,18.79,23.5,18.79h118.06l-94.54-414.19h118.89c11.22,0,20.94,7.73,23.47,18.66l84.43,376.81c2.52,10.95,12.25,18.71,23.49,18.71h118.86l-93.03-414.19c-8.72-38.12-32.07-72.64-62.77-97.63Z"/>
    </g>
  </g>
</svg>